<!DOCTYPE svg PUBLIC "-//W3C//DTD SVG 1.1//EN" "http://www.w3.org/Graphics/SVG/1.1/DTD/svg11.dtd">
<!-- Uploaded to: SVG Repo, www.svgrepo.com, Transformed by: SVG Repo Mixer Tools -->
<svg width="256px" height="256px" viewBox="0 0 24 24" xmlns="http://www.w3.org/2000/svg" fill="#000000">
<g id="SVGRepo_bgCarrier" stroke-width="0"/>
<g id="SVGRepo_tracerCarrier" stroke-linecap="round" stroke-linejoin="round"/>
<g id="SVGRepo_iconCarrier"> <g> <path fill="none" d="M0 0h24v24H0z"/> <path d="M4.929 21.485l5.846-5.846a2 2 0 1 0-1.414-1.414l-5.846 5.846-1.06-1.06c2.827-3.3 3.888-6.954 5.302-13.082l6.364-.707 5.657 5.657-.707 6.364c-6.128 1.414-9.782 2.475-13.081 5.303l-1.061-1.06zM16.596 2.04l6.347 6.346a.5.5 0 0 1-.277.848l-1.474.23-5.656-5.656.212-1.485a.5.5 0 0 1 .848-.283z"/> </g> </g>
</svg>